<svg width="108" height="44" fill="none" xmlns="http://www.w3.org/2000/svg"><path d="M11.164 4.216ZM13.418 34.1a15.373 15.373 0 0 1-4.327-2.127.639.639 0 0 1-.182-.147c-.072-.073-.109-.073-.181-.146.069.037.13.087.181.146.073.037.11.074.182.11a14.546 14.546 0 0 0 4.327 2.164ZM32.546 25.777ZM32.546 11.623Z" fill="#000"/><path d="M33.927 15.84c-.036-.257-.109-.513-.145-.77-.073-.257-.11-.513-.182-.77-.036-.11-.073-.257-.11-.367-.108-.33-.217-.623-.326-.916-.11-.294-.255-.624-.364-.917l-.218-.44A16.2 16.2 0 0 0 25.2 4.217l-.436-.22a6.738 6.738 0 0 0-.91-.367c-.29-.11-.618-.22-.909-.33-.145-.037-.254-.073-.363-.11a5.77 5.77 0 0 0-.764-.183 5.605 5.605 0 0 0-.763-.147 12.531 12.531 0 0 0-2.873-.293 14.326 14.326 0 0 0-2.836.256c-.255.037-.51.11-.764.147-.255.073-.51.11-.764.183-.109.037-.254.074-.363.11-.328.11-.619.22-.91.33-.29.11-.618.257-.909.367l-.436.22a16.2 16.2 0 0 0-7.382 7.443l-.218.44a6.858 6.858 0 0 0-.364.917c-.109.293-.218.623-.327.917-.036.146-.073.256-.109.366a5.9 5.9 0 0 0-.182.77c-.066.253-.114.51-.145.77a12.838 12.838 0 0 0-.291 2.897v22.555l6.727-.005v-9.387a.64.64 0 0 1-.182-.146.64.64 0 0 1 .182.146c.073.037.11.074.182.11a15.375 15.375 0 0 0 4.327 2.127c.146.037.255.073.364.11.25.078.505.14.764.183a5.6 5.6 0 0 0 .763.147c.935.18 1.885.266 2.836.257.952.009 1.902-.078 2.837-.257.254-.037.509-.11.764-.147.254-.073.509-.11.763-.183.11-.037.255-.073.364-.11.327-.11.618-.22.909-.33.29-.11.618-.257.909-.367l.436-.22a16.215 16.215 0 0 0 7.346-7.406l.218-.44c.143-.297.264-.603.364-.917.109-.293.218-.623.327-.917.036-.146.073-.256.109-.366.078-.253.138-.51.182-.77.066-.253.114-.51.145-.77.178-.943.264-1.9.255-2.86a15.164 15.164 0 0 0-.146-2.897ZM18.182 27.5a8.676 8.676 0 0 1-4.849-1.483 8.785 8.785 0 0 1-3.214-3.95 8.868 8.868 0 0 1-.497-5.084 8.823 8.823 0 0 1 2.389-4.506 8.706 8.706 0 0 1 4.468-2.408 8.66 8.66 0 0 1 5.043.5 8.744 8.744 0 0 1 3.916 3.242A8.852 8.852 0 0 1 26.91 18.7a8.863 8.863 0 0 1-2.564 6.215 8.716 8.716 0 0 1-6.163 2.585ZM54.182 36.3c-3.165 0-6.258-.946-8.89-2.72a16.105 16.105 0 0 1-5.892-7.24 16.258 16.258 0 0 1-.91-9.32 16.175 16.175 0 0 1 4.378-8.261 15.96 15.96 0 0 1 8.192-4.416 15.877 15.877 0 0 1 9.245.918 16.03 16.03 0 0 1 7.18 5.942 16.23 16.23 0 0 1 2.697 8.963c0 4.28-1.686 8.383-4.687 11.409-3 3.025-7.07 4.725-11.313 4.725Zm0-24.933a8.677 8.677 0 0 0-4.849 1.483 8.784 8.784 0 0 0-3.214 3.949 8.868 8.868 0 0 0-.497 5.084 8.823 8.823 0 0 0 2.389 4.506 8.706 8.706 0 0 0 4.468 2.409 8.661 8.661 0 0 0 5.042-.501 8.744 8.744 0 0 0 3.917-3.241 8.852 8.852 0 0 0 1.47-4.89 8.863 8.863 0 0 0-2.563-6.214 8.717 8.717 0 0 0-6.163-2.585ZM90.182 28.967a8.673 8.673 0 0 1-4.544-1.288 8.773 8.773 0 0 1-3.215-3.485 8.863 8.863 0 0 1 .657-9.14 8.74 8.74 0 0 1 3.679-2.982 8.661 8.661 0 0 1 8.993 1.32 8.802 8.802 0 0 1 2.684 3.915h7.491c-.036-.257-.109-.514-.145-.77-.073-.257-.109-.514-.182-.77-.036-.11-.073-.257-.109-.367a16.403 16.403 0 0 0-3.991-6.61 16.22 16.22 0 0 0-6.555-4.023 4.543 4.543 0 0 1-.363-.11 5.768 5.768 0 0 0-.764-.184 5.604 5.604 0 0 0-.763-.146 12.53 12.53 0 0 0-2.873-.294 14.326 14.326 0 0 0-2.837.257c-.254.037-.509.11-.763.147-.255.073-.51.11-.764.183-.109.037-.254.073-.363.11A16.22 16.22 0 0 0 78.9 8.754a16.404 16.404 0 0 0-3.99 6.61 4.642 4.642 0 0 1-.11.366c-.078.252-.138.51-.182.77-.066.253-.114.51-.145.77a12.844 12.844 0 0 0-.291 2.897c-.009.96.076 1.917.254 2.86.037.256.11.513.146.77.073.256.109.513.182.77.036.11.072.256.109.366a16.403 16.403 0 0 0 3.99 6.61 16.22 16.22 0 0 0 6.555 4.024c.146.036.255.073.364.11.25.078.505.14.764.183a5.6 5.6 0 0 0 .763.147c.935.18 1.885.265 2.837.256.951.01 1.901-.077 2.836-.256.254-.037.509-.11.764-.147.254-.073.509-.11.763-.183.11-.037.255-.074.364-.11a16.07 16.07 0 0 0 6.582-3.988 16.258 16.258 0 0 0 4-6.609c.036-.147.072-.257.109-.367.077-.252.138-.51.181-.77a1.63 1.63 0 0 0 .037-.183h-7.564a8.829 8.829 0 0 1-3.232 3.867 8.721 8.721 0 0 1-4.804 1.45ZM105.927 23.027c-.036.22-.072.403-.109.623.037-.22.073-.44.109-.623Z" /></svg>