<svg xmlns="http://www.w3.org/2000/svg" viewBox="0 0 290.5 153.1" style="enable-background:new 0 0 290.5 153.1" xml:space="preserve"><path d="M279.2 48.1c-7.8 0-14.5.1-21.2-.1-1 0-2-.7-2.8-1.3-18.5-14.4-40-22.3-62.7-26-16.9-2.8-34.1-3.3-51.2-4.8-.9-.1-1.8.3-2.8 1.4 1.7.3 3.5.6 5.2.8 20.4 1.9 40.4 5.3 59.2 13.9 8 3.6 15.3 8.4 21 15.7-8.8-.8-17.8 2.9-26.4-2.6-15.7-10-33.3-14.6-51.5-17.4-7.6-1.2-15.2-1.8-22.8-2.6-1-.1-2 .2-3.1.8 15.7 4.5 31.7 8.2 43.1 21.6-8.3-.6-16.7 3.1-24.9-2.7-9.6-6.8-20.9-9.3-32.4-11.1-19.4-2.9-38.8-3.9-58.1.2-9.6 2-18.2 5.8-25.7 12.6-2.5 2.2-7.7 1.5-13.1 2.4 1.6-3.1 2.4-4.8 3.4-6.3 5-7.1 11.9-11.9 19.5-15.8 16.1-8.4 33.6-12.4 51.4-15 24.5-3.6 49.2-4.5 73.9-3.7 29.9 1.1 59.3 4.7 87.3 16.3 10.4 4.3 20.2 9.7 28.6 17.3 2 1.8 3.6 3.8 6.1 6.4zM279.6 107.4c-2.7 6-7.4 10.3-12.7 14.1-13.1 9.4-28.1 14.2-43.6 17.7-18.5 4.1-37.2 5.8-56.1 6.7-22.3 1.1-44.5.5-66.6-2.2-25-3.1-49.2-8.8-71.2-21.7-6.9-4-13.2-8.8-18.8-15.8 7.7 0 14.5 0 21.3.1.8 0 1.7.7 2.4 1.2 18.9 14.8 40.8 22.7 64 26.4 16.4 2.7 33.2 3.2 49.9 4.6 1.2.1 2.4-.3 3.6-.9-30.8-4.3-62-7.1-86.1-30.6 8.9.5 17.8-3.2 26.5 2.3 18.5 11.6 39.3 16.1 60.7 18.5 5.4.6 10.9.9 16.6.7-15.6-4.6-31.6-8.4-42.9-21.6 8.8.4 17.6-2.8 26 3.3 9.5 6.8 21.1 9 32.5 10.6 18.8 2.6 37.6 3.6 56.3-.3 9.8-2.1 18.5-5.9 26.1-12.7 2.5-2.2 7.6-1.4 11.5-2 .3.5.4 1.1.6 1.6zM210.2 84.9c2.1 3.4 4 6.4 6.4 10.3-6.7 0-12.6.1-18.4-.1-.7 0-1.7-.8-2.2-1.4-2.4-3.7-4.6-7.5-6.9-11.3 4.2-1.8 8.2-3.1 11.6-5.2 1.6-1 3.5-3.8 3.1-5.3-.3-1.6-3-3.2-5-3.7-6.2-1.6-7.4-.7-9.4 5.2-2 6.1-4 12.2-6.2 18.3-.5 1.3-1.6 3.3-2.5 3.3-6.2.3-12.4.2-19.4.2 1.9-5.7 3.4-10.6 5.1-15.5 2-6 3.9-11.9 6.2-17.8.5-1.3 2.1-3.1 3.2-3.1 11.9.1 23.9.5 35.8 1 1.9.1 3.9 1 5.6 1.9 3.7 1.8 6.7 4.2 6.9 8.9.2 5-2.1 8.6-6.2 11-2.1 1.1-4.6 1.9-7.7 3.3zM84.4 71.7h19c-.1 8.1-1.5 9.6-8.7 9.7-3.8 0-7.7-.1-11.5.1-3.3.1-3.5.5-3.6 4.8h19.1c-.7 8.5-1.3 9-9 9H60.3c-1.7 0-3.3-.1-5.4-.2.2-1.4.2-2.4.5-3.3 3.3-9.9 6.5-19.8 10-29.6.5-1.4 2.2-3.4 3.4-3.4 13-.2 26-.2 39-.2-.1 7.9-1.3 9.1-8.6 9.1-3.8 0-7.7-.2-11.5.1-1.4.1-2.7 1.5-4.1 2.3.4.5.6 1.1.8 1.6zM219.8 95.3c11.2-12.4 21.4-24 32.2-35.1 1.7-1.7 5.7-1.6 8.6-1.6 9.3 0 7.2-1.3 10.8 7.1 3.5 8.2 6.9 16.4 10.3 24.6.6 1.4 1 2.8 1.8 4.9-6.6 0-12.7.2-18.8-.2-1.3-.1-2.8-2.1-3.5-3.5-2.6-5.3-4.9-10.8-7.6-17-2.1 2.3-3.6 3.9-5.2 5.6 2 1.2 4.1 1.9 5.3 3.4 1.2 1.4 1.6 3.5 2.7 6.1-4.8 0-8.8-.1-12.9.1-1.6.1-3.9.3-4.6 1.3-3.1 4.7-7.6 4.4-12.2 4.3-2-.1-3.8 0-6.9 0zM127.7 67.8h-14.5c.8-8.5 1.6-9.3 8.6-9.3h45.1c-.8 2.6-1.4 4.5-1.9 6.4-.5 2.3-1.8 3.1-4.3 3.1-11.7.1-11.7.1-15.5 11.3-1.5 4.3-2.8 8.8-4.5 13-.5 1.2-2.2 2.8-3.4 2.9-4.7.3-9.5.2-14.3.2-1.2 0-2.4-.2-4.3-.3 2.9-9 5.7-17.5 9-27.3zM60 58.8c-.6 2.3-1.1 3.6-1.4 4.9-.7 3.4-2.5 4.4-6.2 4.3-12.5-.3-9.6-1.3-13.2 9.2C37.6 82 36 87 34.1 91.9c-.5 1.2-1.8 3.1-2.7 3.1-6.2.3-12.4.1-19.4.1 3.1-9.2 5.8-17.6 8.9-26.9H6.5c.5-8.6 1.6-9.8 8.9-9.8h38.7c1.8.1 3.5.2 5.9.4z"/></svg>